<svg xmlns="http://www.w3.org/2000/svg" xmlns:xlink="http://www.w3.org/1999/xlink" width="160" zoomAndPan="magnify" viewBox="0 0 120 30.000001" height="40" preserveAspectRatio="xMidYMid meet" version="1.0"><defs><g/><clipPath id="ede117e1b2"><path d="M 2 0 L 20 0 L 20 14 L 2 14 Z M 2 0 " clip-rule="nonzero"/></clipPath><clipPath id="f4520dac5f"><path d="M 0.828125 3.070312 L 18.175781 -2.257812 L 21.585938 8.839844 L 4.242188 14.171875 Z M 0.828125 3.070312 " clip-rule="nonzero"/></clipPath><clipPath id="ea7250f3af"><path d="M 0.828125 3.070312 L 18.175781 -2.257812 L 21.585938 8.839844 L 4.242188 14.171875 Z M 0.828125 3.070312 " clip-rule="nonzero"/></clipPath><clipPath id="89798e540a"><path d="M 6 3 L 17 3 L 17 10 L 6 10 Z M 6 3 " clip-rule="nonzero"/></clipPath><clipPath id="78a202fdbc"><path d="M 0.828125 3.070312 L 18.175781 -2.257812 L 21.585938 8.839844 L 4.242188 14.171875 Z M 0.828125 3.070312 " clip-rule="nonzero"/></clipPath><clipPath id="01bed142e0"><path d="M 0.828125 3.070312 L 18.175781 -2.257812 L 21.585938 8.839844 L 4.242188 14.171875 Z M 0.828125 3.070312 " clip-rule="nonzero"/></clipPath><clipPath id="eb85f52ecd"><path d="M 6 1 L 118 1 L 118 29.03125 L 6 29.03125 Z M 6 1 " clip-rule="nonzero"/></clipPath><clipPath id="a6335e16ef"><path d="M 96 10 L 111.601562 10 L 111.601562 28 L 96 28 Z M 96 10 " clip-rule="nonzero"/></clipPath><clipPath id="1289de56f3"><rect x="0" width="112" y="0" height="29"/></clipPath><clipPath id="308c349a24"><path d="M 0.207031 1 L 3 1 L 3 4 L 0.207031 4 Z M 0.207031 1 " clip-rule="nonzero"/></clipPath><clipPath id="37e7cd36bc"><rect x="0" width="58" y="0" height="5"/></clipPath></defs><g clip-path="url(#ede117e1b2)"><g clip-path="url(#f4520dac5f)"><g clip-path="url(#ea7250f3af)"><path fill="#39a092" d="M 14.601562 0.582031 L 9.839844 0.324219 L 9.78125 0.320312 L 9.738281 0.355469 L 5.945312 3.242188 L 2.0625 6.199219 L 3.085938 6.253906 L 4.265625 6.320312 C 4.171875 6.828125 4.214844 7.726562 4.949219 9.09375 C 4.753906 9.25 4.664062 9.515625 4.742188 9.765625 C 4.800781 9.945312 4.929688 10.082031 5.089844 10.15625 C 5.441406 11.769531 4.445312 12.316406 4.105469 12.453125 C 4 12.496094 3.921875 12.597656 3.929688 12.714844 C 3.957031 13.203125 5.335938 13.285156 6.140625 13.289062 C 6.496094 13.292969 6.800781 13.03125 6.851562 12.679688 C 7.054688 11.308594 6.308594 10.285156 5.910156 9.84375 C 5.976562 9.710938 5.988281 9.550781 5.941406 9.398438 C 5.859375 9.132812 5.617188 8.960938 5.355469 8.957031 C 5.105469 8.398438 4.613281 7.148438 4.824219 6.347656 L 6.132812 6.421875 C 6.121094 5.683594 7.210938 5.085938 7.589844 4.878906 C 8.425781 4.417969 9.585938 3.953125 10.859375 3.558594 C 12.128906 3.171875 13.347656 2.90625 14.285156 2.816406 C 14.707031 2.777344 15.902344 2.664062 16.328125 3.242188 L 18.65625 1.46875 L 19.472656 0.847656 Z M 14.601562 0.582031 " fill-opacity="1" fill-rule="nonzero"/></g></g></g><g clip-path="url(#89798e540a)"><g clip-path="url(#78a202fdbc)"><g clip-path="url(#01bed142e0)"><path fill="#39a092" d="M 6.546875 6.515625 L 7.398438 9.289062 C 8.484375 7.96875 9.960938 6.941406 11.71875 6.402344 C 13.476562 5.859375 15.273438 5.882812 16.914062 6.363281 L 16.058594 3.582031 C 15.605469 2.109375 6.089844 5.039062 6.546875 6.515625 Z M 6.546875 6.515625 " fill-opacity="1" fill-rule="nonzero"/></g></g></g><g clip-path="url(#eb85f52ecd)"><g transform="matrix(1, 0, 0, 1, 6, 1)"><g clip-path="url(#1289de56f3)"><g fill="#2c467c" fill-opacity="1"><g transform="translate(1.040779, 21.855598)"><g><path d="M 5.96875 0.140625 C 4.40625 0.140625 3.128906 -0.195312 2.140625 -0.875 C 1.160156 -1.550781 0.671875 -2.515625 0.671875 -3.765625 C 0.671875 -3.890625 0.6875 -4.078125 0.71875 -4.328125 L 4.390625 -4.328125 C 4.347656 -3.804688 4.46875 -3.394531 4.75 -3.09375 C 5.039062 -2.789062 5.484375 -2.640625 6.078125 -2.640625 C 6.609375 -2.640625 7.03125 -2.753906 7.34375 -2.984375 C 7.65625 -3.222656 7.8125 -3.550781 7.8125 -3.96875 C 7.8125 -4.414062 7.613281 -4.773438 7.21875 -5.046875 C 6.820312 -5.316406 6.210938 -5.625 5.390625 -5.96875 C 4.597656 -6.300781 3.953125 -6.613281 3.453125 -6.90625 C 2.953125 -7.207031 2.515625 -7.609375 2.140625 -8.109375 C 1.765625 -8.617188 1.578125 -9.257812 1.578125 -10.03125 C 1.566406 -10.976562 1.800781 -11.800781 2.28125 -12.5 C 2.757812 -13.195312 3.425781 -13.726562 4.28125 -14.09375 C 5.132812 -14.46875 6.109375 -14.65625 7.203125 -14.65625 C 8.191406 -14.65625 9.070312 -14.5 9.84375 -14.1875 C 10.613281 -13.882812 11.210938 -13.441406 11.640625 -12.859375 C 12.066406 -12.273438 12.28125 -11.585938 12.28125 -10.796875 C 12.28125 -10.585938 12.269531 -10.4375 12.25 -10.34375 L 8.5 -10.34375 C 8.519531 -10.394531 8.53125 -10.472656 8.53125 -10.578125 C 8.53125 -10.960938 8.394531 -11.273438 8.125 -11.515625 C 7.851562 -11.753906 7.484375 -11.875 7.015625 -11.875 C 6.523438 -11.875 6.125 -11.753906 5.8125 -11.515625 C 5.507812 -11.273438 5.359375 -10.953125 5.359375 -10.546875 C 5.359375 -10.128906 5.546875 -9.78125 5.921875 -9.5 C 6.304688 -9.21875 6.90625 -8.894531 7.71875 -8.53125 C 8.53125 -8.15625 9.191406 -7.804688 9.703125 -7.484375 C 10.222656 -7.171875 10.664062 -6.75 11.03125 -6.21875 C 11.40625 -5.695312 11.59375 -5.050781 11.59375 -4.28125 C 11.59375 -3.425781 11.363281 -2.660156 10.90625 -1.984375 C 10.457031 -1.316406 9.804688 -0.796875 8.953125 -0.421875 C 8.109375 -0.046875 7.113281 0.140625 5.96875 0.140625 Z M 5.96875 0.140625 "/></g></g></g><g fill="#2c467c" fill-opacity="1"><g transform="translate(13.066104, 21.855598)"><g><path d="M 9.328125 -11.609375 C 10.453125 -11.609375 11.335938 -11.285156 11.984375 -10.640625 C 12.640625 -9.992188 12.96875 -9.097656 12.96875 -7.953125 C 12.96875 -7.566406 12.925781 -7.15625 12.84375 -6.71875 L 11.65625 0 L 8.15625 0 L 9.265625 -6.234375 C 9.304688 -6.472656 9.328125 -6.679688 9.328125 -6.859375 C 9.328125 -7.429688 9.164062 -7.875 8.84375 -8.1875 C 8.519531 -8.507812 8.070312 -8.671875 7.5 -8.671875 C 6.8125 -8.671875 6.234375 -8.457031 5.765625 -8.03125 C 5.296875 -7.601562 4.992188 -7.003906 4.859375 -6.234375 L 4.859375 -6.28125 L 3.75 0 L 0.21875 0 L 2.921875 -15.234375 L 6.453125 -15.234375 L 5.515625 -9.96875 C 5.972656 -10.476562 6.53125 -10.878906 7.1875 -11.171875 C 7.84375 -11.460938 8.554688 -11.609375 9.328125 -11.609375 Z M 9.328125 -11.609375 "/></g></g></g><g fill="#2c467c" fill-opacity="1"><g transform="translate(26.162183, 21.855598)"><g><path d="M 13.59375 -11.484375 L 11.578125 0 L 8.046875 0 L 8.3125 -1.5625 C 7.863281 -1.050781 7.3125 -0.640625 6.65625 -0.328125 C 6.007812 -0.0234375 5.316406 0.125 4.578125 0.125 C 3.421875 0.125 2.507812 -0.195312 1.84375 -0.84375 C 1.1875 -1.5 0.859375 -2.410156 0.859375 -3.578125 C 0.859375 -4.023438 0.894531 -4.425781 0.96875 -4.78125 L 2.15625 -11.484375 L 5.65625 -11.484375 L 4.578125 -5.25 C 4.535156 -5.03125 4.515625 -4.816406 4.515625 -4.609375 C 4.515625 -4.035156 4.675781 -3.59375 5 -3.28125 C 5.320312 -2.976562 5.769531 -2.828125 6.34375 -2.828125 C 7 -2.828125 7.554688 -3.019531 8.015625 -3.40625 C 8.484375 -3.800781 8.789062 -4.363281 8.9375 -5.09375 L 10.0625 -11.484375 Z M 13.59375 -11.484375 "/></g></g></g><g fill="#2c467c" fill-opacity="1"><g transform="translate(39.258261, 21.855598)"><g><path d="M 6.453125 -15.234375 L 3.75 0 L 0.21875 0 L 2.921875 -15.234375 Z M 6.453125 -15.234375 "/></g></g></g><g fill="#2c467c" fill-opacity="1"><g transform="translate(44.550181, 21.855598)"><g><path d="M 7.390625 -11.65625 C 8.878906 -11.65625 10.054688 -11.253906 10.921875 -10.453125 C 11.796875 -9.648438 12.234375 -8.554688 12.234375 -7.171875 C 12.234375 -6.710938 12.195312 -6.304688 12.125 -5.953125 C 12.070312 -5.640625 11.988281 -5.300781 11.875 -4.9375 L 3.90625 -4.9375 C 3.894531 -4.851562 3.890625 -4.722656 3.890625 -4.546875 C 3.890625 -3.941406 4.050781 -3.484375 4.375 -3.171875 C 4.707031 -2.859375 5.148438 -2.703125 5.703125 -2.703125 C 6.578125 -2.703125 7.25 -3.070312 7.71875 -3.8125 L 11.46875 -3.8125 C 10.976562 -2.644531 10.175781 -1.6875 9.0625 -0.9375 C 7.945312 -0.195312 6.695312 0.171875 5.3125 0.171875 C 3.832031 0.171875 2.648438 -0.238281 1.765625 -1.0625 C 0.878906 -1.894531 0.4375 -3.015625 0.4375 -4.421875 C 0.4375 -4.847656 0.476562 -5.289062 0.5625 -5.75 C 0.757812 -6.9375 1.179688 -7.976562 1.828125 -8.875 C 2.472656 -9.769531 3.273438 -10.457031 4.234375 -10.9375 C 5.203125 -11.414062 6.253906 -11.65625 7.390625 -11.65625 Z M 8.671875 -6.734375 C 8.703125 -6.921875 8.71875 -7.050781 8.71875 -7.125 C 8.71875 -7.675781 8.546875 -8.097656 8.203125 -8.390625 C 7.859375 -8.679688 7.40625 -8.828125 6.84375 -8.828125 C 6.238281 -8.828125 5.703125 -8.644531 5.234375 -8.28125 C 4.773438 -7.925781 4.445312 -7.410156 4.25 -6.734375 Z M 8.671875 -6.734375 "/></g></g></g><g fill="#39a092" fill-opacity="1"><g transform="translate(56.454976, 21.855598)"><g><path d="M 0.921875 -7.25 C 1.171875 -8.675781 1.703125 -9.945312 2.515625 -11.0625 C 3.335938 -12.1875 4.351562 -13.0625 5.5625 -13.6875 C 6.769531 -14.3125 8.070312 -14.625 9.46875 -14.625 C 11.1875 -14.625 12.578125 -14.171875 13.640625 -13.265625 C 14.703125 -12.359375 15.300781 -11.125 15.4375 -9.5625 L 11.578125 -9.5625 C 11.398438 -10.144531 11.070312 -10.59375 10.59375 -10.90625 C 10.125 -11.21875 9.546875 -11.375 8.859375 -11.375 C 7.773438 -11.375 6.832031 -11 6.03125 -10.25 C 5.238281 -9.5 4.734375 -8.5 4.515625 -7.25 C 4.441406 -6.863281 4.40625 -6.523438 4.40625 -6.234375 C 4.40625 -5.273438 4.671875 -4.515625 5.203125 -3.953125 C 5.742188 -3.390625 6.476562 -3.109375 7.40625 -3.109375 C 8.082031 -3.109375 8.710938 -3.265625 9.296875 -3.578125 C 9.878906 -3.898438 10.367188 -4.351562 10.765625 -4.9375 L 14.640625 -4.9375 C 13.953125 -3.375 12.914062 -2.140625 11.53125 -1.234375 C 10.144531 -0.335938 8.59375 0.109375 6.875 0.109375 C 5.644531 0.109375 4.566406 -0.128906 3.640625 -0.609375 C 2.722656 -1.097656 2.015625 -1.78125 1.515625 -2.65625 C 1.023438 -3.53125 0.78125 -4.550781 0.78125 -5.71875 C 0.78125 -6.238281 0.828125 -6.75 0.921875 -7.25 Z M 0.921875 -7.25 "/></g></g></g><g fill="#39a092" fill-opacity="1"><g transform="translate(71.363102, 21.855598)"><g><path d="M 9.328125 -11.609375 C 10.453125 -11.609375 11.335938 -11.285156 11.984375 -10.640625 C 12.640625 -9.992188 12.96875 -9.097656 12.96875 -7.953125 C 12.96875 -7.566406 12.925781 -7.15625 12.84375 -6.71875 L 11.65625 0 L 8.15625 0 L 9.265625 -6.234375 C 9.304688 -6.472656 9.328125 -6.679688 9.328125 -6.859375 C 9.328125 -7.429688 9.164062 -7.875 8.84375 -8.1875 C 8.519531 -8.507812 8.070312 -8.671875 7.5 -8.671875 C 6.8125 -8.671875 6.234375 -8.457031 5.765625 -8.03125 C 5.296875 -7.601562 4.992188 -7.003906 4.859375 -6.234375 L 4.859375 -6.28125 L 3.75 0 L 0.21875 0 L 2.921875 -15.234375 L 6.453125 -15.234375 L 5.515625 -9.96875 C 5.972656 -10.476562 6.53125 -10.878906 7.1875 -11.171875 C 7.84375 -11.460938 8.554688 -11.609375 9.328125 -11.609375 Z M 9.328125 -11.609375 "/></g></g></g><g fill="#39a092" fill-opacity="1"><g transform="translate(84.45918, 21.855598)"><g><path d="M 0.5625 -5.765625 C 0.757812 -6.941406 1.160156 -7.976562 1.765625 -8.875 C 2.367188 -9.769531 3.097656 -10.457031 3.953125 -10.9375 C 4.804688 -11.414062 5.707031 -11.65625 6.65625 -11.65625 C 7.457031 -11.65625 8.132812 -11.488281 8.6875 -11.15625 C 9.238281 -10.832031 9.640625 -10.398438 9.890625 -9.859375 L 10.171875 -11.484375 L 13.6875 -11.484375 L 11.65625 0 L 8.140625 0 L 8.4375 -1.625 C 8 -1.09375 7.441406 -0.660156 6.765625 -0.328125 C 6.097656 0.00390625 5.359375 0.171875 4.546875 0.171875 C 3.742188 0.171875 3.03125 -0.015625 2.40625 -0.390625 C 1.78125 -0.765625 1.296875 -1.289062 0.953125 -1.96875 C 0.609375 -2.644531 0.4375 -3.441406 0.4375 -4.359375 C 0.4375 -4.804688 0.476562 -5.273438 0.5625 -5.765625 Z M 9.171875 -5.75 C 9.203125 -5.988281 9.21875 -6.210938 9.21875 -6.421875 C 9.21875 -7.097656 9.019531 -7.628906 8.625 -8.015625 C 8.238281 -8.398438 7.742188 -8.59375 7.140625 -8.59375 C 6.441406 -8.59375 5.800781 -8.335938 5.21875 -7.828125 C 4.644531 -7.328125 4.285156 -6.640625 4.140625 -5.765625 C 4.097656 -5.515625 4.078125 -5.289062 4.078125 -5.09375 C 4.078125 -4.414062 4.269531 -3.878906 4.65625 -3.484375 C 5.050781 -3.097656 5.546875 -2.90625 6.140625 -2.90625 C 6.835938 -2.90625 7.472656 -3.15625 8.046875 -3.65625 C 8.628906 -4.164062 9.003906 -4.863281 9.171875 -5.75 Z M 9.171875 -5.75 "/></g></g></g><g clip-path="url(#a6335e16ef)"><g fill="#39a092" fill-opacity="1"><g transform="translate(97.658218, 21.855598)"><g><path d="M 5.484375 -9.859375 C 5.921875 -10.398438 6.472656 -10.832031 7.140625 -11.15625 C 7.804688 -11.488281 8.539062 -11.65625 9.34375 -11.65625 C 10.582031 -11.65625 11.582031 -11.25 12.34375 -10.4375 C 13.101562 -9.625 13.484375 -8.523438 13.484375 -7.140625 C 13.484375 -6.710938 13.441406 -6.253906 13.359375 -5.765625 C 13.160156 -4.585938 12.757812 -3.546875 12.15625 -2.640625 C 11.550781 -1.742188 10.820312 -1.050781 9.96875 -0.5625 C 9.113281 -0.0703125 8.210938 0.171875 7.265625 0.171875 C 6.472656 0.171875 5.800781 0.00390625 5.25 -0.328125 C 4.695312 -0.660156 4.289062 -1.085938 4.03125 -1.609375 L 2.78125 5.484375 L -0.734375 5.484375 L 2.25 -11.484375 L 5.765625 -11.484375 Z M 9.796875 -5.765625 C 9.835938 -5.992188 9.859375 -6.207031 9.859375 -6.40625 C 9.859375 -7.09375 9.660156 -7.628906 9.265625 -8.015625 C 8.878906 -8.398438 8.382812 -8.59375 7.78125 -8.59375 C 7.082031 -8.59375 6.441406 -8.335938 5.859375 -7.828125 C 5.285156 -7.316406 4.914062 -6.625 4.75 -5.75 C 4.71875 -5.5 4.703125 -5.269531 4.703125 -5.0625 C 4.703125 -4.394531 4.890625 -3.867188 5.265625 -3.484375 C 5.648438 -3.097656 6.144531 -2.90625 6.75 -2.90625 C 7.457031 -2.90625 8.101562 -3.160156 8.6875 -3.671875 C 9.269531 -4.191406 9.640625 -4.890625 9.796875 -5.765625 Z M 9.796875 -5.765625 "/></g></g></g></g></g></g></g><g transform="matrix(1, 0, 0, 1, 44, 24)"><g clip-path="url(#37e7cd36bc)"><g clip-path="url(#308c349a24)"><g fill="#a0a6ac" fill-opacity="1"><g transform="translate(0.404363, 3.611279)"><g><path d="M 1.15625 -2.234375 C 1.320312 -2.234375 1.457031 -2.203125 1.5625 -2.140625 C 1.675781 -2.085938 1.765625 -2.007812 1.828125 -1.90625 C 1.890625 -1.800781 1.921875 -1.675781 1.921875 -1.53125 C 1.921875 -1.394531 1.890625 -1.273438 1.828125 -1.171875 C 1.765625 -1.066406 1.675781 -0.984375 1.5625 -0.921875 C 1.457031 -0.859375 1.320312 -0.828125 1.15625 -0.828125 L 0.734375 -0.828125 L 0.734375 0 L 0.296875 0 L 0.296875 -2.234375 Z M 1.09375 -1.1875 C 1.34375 -1.1875 1.46875 -1.300781 1.46875 -1.53125 C 1.46875 -1.769531 1.34375 -1.890625 1.09375 -1.890625 L 0.734375 -1.890625 L 0.734375 -1.1875 Z M 1.09375 -1.1875 "/></g></g></g></g><g fill="#a0a6ac" fill-opacity="1"><g transform="translate(3.724148, 3.611279)"><g><path d="M 1.21875 0.03125 C 1.007812 0.03125 0.828125 -0.0078125 0.671875 -0.09375 C 0.515625 -0.175781 0.390625 -0.300781 0.296875 -0.46875 C 0.210938 -0.644531 0.171875 -0.863281 0.171875 -1.125 C 0.171875 -1.375 0.210938 -1.582031 0.296875 -1.75 C 0.390625 -1.925781 0.515625 -2.054688 0.671875 -2.140625 C 0.828125 -2.234375 1.007812 -2.28125 1.21875 -2.28125 C 1.425781 -2.28125 1.609375 -2.238281 1.765625 -2.15625 C 1.921875 -2.070312 2.039062 -1.941406 2.125 -1.765625 C 2.21875 -1.585938 2.265625 -1.375 2.265625 -1.125 C 2.265625 -0.863281 2.21875 -0.644531 2.125 -0.46875 C 2.039062 -0.300781 1.921875 -0.175781 1.765625 -0.09375 C 1.609375 -0.0078125 1.425781 0.03125 1.21875 0.03125 Z M 1.21875 -0.359375 C 1.40625 -0.359375 1.550781 -0.414062 1.65625 -0.53125 C 1.757812 -0.65625 1.8125 -0.851562 1.8125 -1.125 C 1.8125 -1.382812 1.757812 -1.578125 1.65625 -1.703125 C 1.550781 -1.828125 1.40625 -1.890625 1.21875 -1.890625 C 1.03125 -1.890625 0.882812 -1.828125 0.78125 -1.703125 C 0.6875 -1.578125 0.640625 -1.382812 0.640625 -1.125 C 0.640625 -0.851562 0.6875 -0.65625 0.78125 -0.53125 C 0.882812 -0.414062 1.03125 -0.359375 1.21875 -0.359375 Z M 1.21875 -0.359375 "/></g></g></g><g fill="#a0a6ac" fill-opacity="1"><g transform="translate(7.437775, 3.611279)"><g><path d="M 1.078125 0 L 0.578125 0 L 0.0625 -2.234375 L 0.5 -2.234375 L 0.84375 -0.671875 L 0.875 -0.671875 L 1.28125 -2.234375 L 1.65625 -2.234375 L 2.0625 -0.671875 L 2.109375 -0.671875 L 2.453125 -2.234375 L 2.875 -2.234375 L 2.359375 0 L 1.859375 0 L 1.46875 -1.453125 L 1.4375 -1.453125 Z M 1.078125 0 "/></g></g></g><g fill="#a0a6ac" fill-opacity="1"><g transform="translate(11.643318, 3.611279)"><g><path d="M 0.734375 -0.984375 L 0.734375 -0.375 L 1.8125 -0.375 L 1.8125 0 L 0.296875 0 L 0.296875 -2.234375 L 1.78125 -2.234375 L 1.78125 -1.875 L 0.734375 -1.875 L 0.734375 -1.34375 L 1.65625 -1.34375 L 1.65625 -0.984375 Z M 0.734375 -0.984375 "/></g></g></g><g fill="#a0a6ac" fill-opacity="1"><g transform="translate(14.842041, 3.611279)"><g><path d="M 0.296875 0 L 0.296875 -2.234375 L 1.1875 -2.234375 C 1.425781 -2.234375 1.601562 -2.179688 1.71875 -2.078125 C 1.832031 -1.972656 1.890625 -1.828125 1.890625 -1.640625 C 1.890625 -1.503906 1.851562 -1.390625 1.78125 -1.296875 C 1.71875 -1.210938 1.617188 -1.148438 1.484375 -1.109375 L 1.484375 -1.078125 C 1.554688 -1.046875 1.613281 -1 1.65625 -0.9375 C 1.695312 -0.875 1.738281 -0.785156 1.78125 -0.671875 L 2 0 L 1.546875 0 L 1.328125 -0.671875 C 1.304688 -0.734375 1.28125 -0.785156 1.25 -0.828125 C 1.21875 -0.867188 1.179688 -0.894531 1.140625 -0.90625 C 1.097656 -0.925781 1.039062 -0.9375 0.96875 -0.9375 L 0.734375 -0.9375 L 0.734375 0 Z M 1.140625 -1.28125 C 1.347656 -1.28125 1.453125 -1.378906 1.453125 -1.578125 C 1.453125 -1.785156 1.347656 -1.890625 1.140625 -1.890625 L 0.734375 -1.890625 L 0.734375 -1.28125 Z M 1.140625 -1.28125 "/></g></g></g><g fill="#a0a6ac" fill-opacity="1"><g transform="translate(18.209334, 3.611279)"><g><path d="M 0.734375 -0.984375 L 0.734375 -0.375 L 1.8125 -0.375 L 1.8125 0 L 0.296875 0 L 0.296875 -2.234375 L 1.78125 -2.234375 L 1.78125 -1.875 L 0.734375 -1.875 L 0.734375 -1.34375 L 1.65625 -1.34375 L 1.65625 -0.984375 Z M 0.734375 -0.984375 "/></g></g></g><g fill="#a0a6ac" fill-opacity="1"><g transform="translate(21.408057, 3.611279)"><g><path d="M 1.09375 -2.234375 C 1.457031 -2.234375 1.734375 -2.140625 1.921875 -1.953125 C 2.117188 -1.765625 2.21875 -1.488281 2.21875 -1.125 C 2.21875 -0.75 2.117188 -0.46875 1.921875 -0.28125 C 1.734375 -0.09375 1.457031 0 1.09375 0 L 0.296875 0 L 0.296875 -2.234375 Z M 1.078125 -0.375 C 1.304688 -0.375 1.476562 -0.429688 1.59375 -0.546875 C 1.707031 -0.671875 1.765625 -0.863281 1.765625 -1.125 C 1.765625 -1.382812 1.707031 -1.570312 1.59375 -1.6875 C 1.476562 -1.8125 1.304688 -1.875 1.078125 -1.875 L 0.734375 -1.875 L 0.734375 -0.375 Z M 1.078125 -0.375 "/></g></g></g><g fill="#a0a6ac" fill-opacity="1"><g transform="translate(25.07571, 3.611279)"><g/></g></g><g fill="#a0a6ac" fill-opacity="1"><g transform="translate(27.088315, 3.611279)"><g><path d="M 0.296875 0 L 0.296875 -2.234375 L 1.25 -2.234375 C 1.382812 -2.234375 1.5 -2.210938 1.59375 -2.171875 C 1.6875 -2.128906 1.757812 -2.066406 1.8125 -1.984375 C 1.863281 -1.910156 1.890625 -1.816406 1.890625 -1.703125 C 1.890625 -1.609375 1.863281 -1.519531 1.8125 -1.4375 C 1.769531 -1.363281 1.703125 -1.304688 1.609375 -1.265625 L 1.609375 -1.234375 C 1.753906 -1.191406 1.863281 -1.125 1.9375 -1.03125 C 2.007812 -0.9375 2.046875 -0.816406 2.046875 -0.671875 C 2.046875 -0.453125 1.976562 -0.285156 1.84375 -0.171875 C 1.71875 -0.0546875 1.53125 0 1.28125 0 Z M 1.15625 -1.34375 C 1.363281 -1.34375 1.46875 -1.4375 1.46875 -1.625 C 1.46875 -1.71875 1.441406 -1.785156 1.390625 -1.828125 C 1.335938 -1.878906 1.257812 -1.90625 1.15625 -1.90625 L 0.734375 -1.90625 L 0.734375 -1.34375 Z M 1.234375 -0.34375 C 1.484375 -0.34375 1.609375 -0.457031 1.609375 -0.6875 C 1.609375 -0.90625 1.484375 -1.015625 1.234375 -1.015625 L 0.734375 -1.015625 L 0.734375 -0.34375 Z M 1.234375 -0.34375 "/></g></g></g><g fill="#a0a6ac" fill-opacity="1"><g transform="translate(30.55215, 3.611279)"><g><path d="M 1.234375 0 L 0.78125 0 L 0.78125 -0.875 L 0.015625 -2.234375 L 0.484375 -2.234375 L 1 -1.359375 L 1.03125 -1.359375 L 1.53125 -2.234375 L 2 -2.234375 L 1.234375 -0.875 Z M 1.234375 0 "/></g></g></g><g fill="#a0a6ac" fill-opacity="1"><g transform="translate(33.836691, 3.611279)"><g/></g></g><g fill="#a0a6ac" fill-opacity="1"><g transform="translate(35.849295, 3.611279)"><g><path d="M 1 0.03125 C 0.84375 0.03125 0.703125 0.015625 0.578125 -0.015625 C 0.453125 -0.0546875 0.347656 -0.109375 0.265625 -0.171875 C 0.191406 -0.234375 0.132812 -0.300781 0.09375 -0.375 L 0.328125 -0.671875 L 0.375 -0.671875 C 0.4375 -0.578125 0.519531 -0.5 0.625 -0.4375 C 0.726562 -0.375 0.851562 -0.34375 1 -0.34375 C 1.113281 -0.34375 1.203125 -0.367188 1.265625 -0.421875 C 1.328125 -0.472656 1.359375 -0.546875 1.359375 -0.640625 C 1.359375 -0.691406 1.347656 -0.734375 1.328125 -0.765625 C 1.304688 -0.804688 1.269531 -0.835938 1.21875 -0.859375 C 1.175781 -0.878906 1.117188 -0.898438 1.046875 -0.921875 L 0.75 -0.984375 C 0.550781 -1.035156 0.398438 -1.113281 0.296875 -1.21875 C 0.203125 -1.320312 0.15625 -1.460938 0.15625 -1.640625 C 0.15625 -1.765625 0.1875 -1.875 0.25 -1.96875 C 0.3125 -2.0625 0.40625 -2.132812 0.53125 -2.1875 C 0.65625 -2.25 0.800781 -2.28125 0.96875 -2.28125 C 1.132812 -2.28125 1.28125 -2.253906 1.40625 -2.203125 C 1.53125 -2.160156 1.632812 -2.09375 1.71875 -2 L 1.5 -1.703125 L 1.46875 -1.703125 C 1.40625 -1.765625 1.332031 -1.8125 1.25 -1.84375 C 1.164062 -1.875 1.070312 -1.890625 0.96875 -1.890625 C 0.84375 -1.890625 0.75 -1.867188 0.6875 -1.828125 C 0.625 -1.785156 0.59375 -1.726562 0.59375 -1.65625 C 0.59375 -1.582031 0.613281 -1.523438 0.65625 -1.484375 C 0.695312 -1.441406 0.773438 -1.410156 0.890625 -1.390625 L 1.1875 -1.328125 C 1.40625 -1.273438 1.5625 -1.191406 1.65625 -1.078125 C 1.757812 -0.972656 1.8125 -0.832031 1.8125 -0.65625 C 1.8125 -0.519531 1.78125 -0.398438 1.71875 -0.296875 C 1.65625 -0.191406 1.5625 -0.109375 1.4375 -0.046875 C 1.320312 0.00390625 1.175781 0.03125 1 0.03125 Z M 1 0.03125 "/></g></g></g><g fill="#a0a6ac" fill-opacity="1"><g transform="translate(39.046484, 3.611279)"><g><path d="M 1.21875 0.03125 C 1.007812 0.03125 0.828125 -0.0078125 0.671875 -0.09375 C 0.515625 -0.175781 0.390625 -0.300781 0.296875 -0.46875 C 0.210938 -0.644531 0.171875 -0.863281 0.171875 -1.125 C 0.171875 -1.375 0.210938 -1.582031 0.296875 -1.75 C 0.390625 -1.925781 0.515625 -2.054688 0.671875 -2.140625 C 0.828125 -2.234375 1.007812 -2.28125 1.21875 -2.28125 C 1.425781 -2.28125 1.609375 -2.238281 1.765625 -2.15625 C 1.921875 -2.070312 2.039062 -1.941406 2.125 -1.765625 C 2.21875 -1.585938 2.265625 -1.375 2.265625 -1.125 C 2.265625 -0.863281 2.21875 -0.644531 2.125 -0.46875 C 2.039062 -0.300781 1.921875 -0.175781 1.765625 -0.09375 C 1.609375 -0.0078125 1.425781 0.03125 1.21875 0.03125 Z M 1.21875 -0.359375 C 1.40625 -0.359375 1.550781 -0.414062 1.65625 -0.53125 C 1.757812 -0.65625 1.8125 -0.851562 1.8125 -1.125 C 1.8125 -1.382812 1.757812 -1.578125 1.65625 -1.703125 C 1.550781 -1.828125 1.40625 -1.890625 1.21875 -1.890625 C 1.03125 -1.890625 0.882812 -1.828125 0.78125 -1.703125 C 0.6875 -1.578125 0.640625 -1.382812 0.640625 -1.125 C 0.640625 -0.851562 0.6875 -0.65625 0.78125 -0.53125 C 0.882812 -0.414062 1.03125 -0.359375 1.21875 -0.359375 Z M 1.21875 -0.359375 "/></g></g></g><g fill="#a0a6ac" fill-opacity="1"><g transform="translate(42.760111, 3.611279)"><g><path d="M 1 0.03125 C 0.84375 0.03125 0.703125 0.015625 0.578125 -0.015625 C 0.453125 -0.0546875 0.347656 -0.109375 0.265625 -0.171875 C 0.191406 -0.234375 0.132812 -0.300781 0.09375 -0.375 L 0.328125 -0.671875 L 0.375 -0.671875 C 0.4375 -0.578125 0.519531 -0.5 0.625 -0.4375 C 0.726562 -0.375 0.851562 -0.34375 1 -0.34375 C 1.113281 -0.34375 1.203125 -0.367188 1.265625 -0.421875 C 1.328125 -0.472656 1.359375 -0.546875 1.359375 -0.640625 C 1.359375 -0.691406 1.347656 -0.734375 1.328125 -0.765625 C 1.304688 -0.804688 1.269531 -0.835938 1.21875 -0.859375 C 1.175781 -0.878906 1.117188 -0.898438 1.046875 -0.921875 L 0.75 -0.984375 C 0.550781 -1.035156 0.398438 -1.113281 0.296875 -1.21875 C 0.203125 -1.320312 0.15625 -1.460938 0.15625 -1.640625 C 0.15625 -1.765625 0.1875 -1.875 0.25 -1.96875 C 0.3125 -2.0625 0.40625 -2.132812 0.53125 -2.1875 C 0.65625 -2.25 0.800781 -2.28125 0.96875 -2.28125 C 1.132812 -2.28125 1.28125 -2.253906 1.40625 -2.203125 C 1.53125 -2.160156 1.632812 -2.09375 1.71875 -2 L 1.5 -1.703125 L 1.46875 -1.703125 C 1.40625 -1.765625 1.332031 -1.8125 1.25 -1.84375 C 1.164062 -1.875 1.070312 -1.890625 0.96875 -1.890625 C 0.84375 -1.890625 0.75 -1.867188 0.6875 -1.828125 C 0.625 -1.785156 0.59375 -1.726562 0.59375 -1.65625 C 0.59375 -1.582031 0.613281 -1.523438 0.65625 -1.484375 C 0.695312 -1.441406 0.773438 -1.410156 0.890625 -1.390625 L 1.1875 -1.328125 C 1.40625 -1.273438 1.5625 -1.191406 1.65625 -1.078125 C 1.757812 -0.972656 1.8125 -0.832031 1.8125 -0.65625 C 1.8125 -0.519531 1.78125 -0.398438 1.71875 -0.296875 C 1.65625 -0.191406 1.5625 -0.109375 1.4375 -0.046875 C 1.320312 0.00390625 1.175781 0.03125 1 0.03125 Z M 1 0.03125 "/></g></g></g><g fill="#a0a6ac" fill-opacity="1"><g transform="translate(45.9573, 3.611279)"><g><path d="M 1.21875 0.03125 C 1.019531 0.03125 0.835938 -0.0078125 0.671875 -0.09375 C 0.515625 -0.175781 0.390625 -0.304688 0.296875 -0.484375 C 0.210938 -0.660156 0.171875 -0.875 0.171875 -1.125 C 0.171875 -1.375 0.210938 -1.582031 0.296875 -1.75 C 0.390625 -1.925781 0.515625 -2.054688 0.671875 -2.140625 C 0.835938 -2.234375 1.019531 -2.28125 1.21875 -2.28125 C 1.4375 -2.28125 1.617188 -2.234375 1.765625 -2.140625 C 1.921875 -2.054688 2.03125 -1.929688 2.09375 -1.765625 L 1.78125 -1.5625 L 1.734375 -1.5625 C 1.679688 -1.675781 1.613281 -1.757812 1.53125 -1.8125 C 1.457031 -1.863281 1.351562 -1.890625 1.21875 -1.890625 C 1.039062 -1.890625 0.898438 -1.828125 0.796875 -1.703125 C 0.691406 -1.578125 0.640625 -1.382812 0.640625 -1.125 C 0.640625 -0.851562 0.691406 -0.65625 0.796875 -0.53125 C 0.898438 -0.40625 1.039062 -0.34375 1.21875 -0.34375 C 1.507812 -0.34375 1.691406 -0.488281 1.765625 -0.78125 L 1.796875 -0.78125 L 2.125 -0.609375 C 2.0625 -0.390625 1.957031 -0.226562 1.8125 -0.125 C 1.664062 -0.0195312 1.46875 0.03125 1.21875 0.03125 Z M 1.21875 0.03125 "/></g></g></g><g fill="#a0a6ac" fill-opacity="1"><g transform="translate(49.427266, 3.611279)"><g><path d="M 1.21875 0.03125 C 1.007812 0.03125 0.828125 -0.0078125 0.671875 -0.09375 C 0.515625 -0.175781 0.390625 -0.300781 0.296875 -0.46875 C 0.210938 -0.644531 0.171875 -0.863281 0.171875 -1.125 C 0.171875 -1.375 0.210938 -1.582031 0.296875 -1.75 C 0.390625 -1.925781 0.515625 -2.054688 0.671875 -2.140625 C 0.828125 -2.234375 1.007812 -2.28125 1.21875 -2.28125 C 1.425781 -2.28125 1.609375 -2.238281 1.765625 -2.15625 C 1.921875 -2.070312 2.039062 -1.941406 2.125 -1.765625 C 2.21875 -1.585938 2.265625 -1.375 2.265625 -1.125 C 2.265625 -0.863281 2.21875 -0.644531 2.125 -0.46875 C 2.039062 -0.300781 1.921875 -0.175781 1.765625 -0.09375 C 1.609375 -0.0078125 1.425781 0.03125 1.21875 0.03125 Z M 1.21875 -0.359375 C 1.40625 -0.359375 1.550781 -0.414062 1.65625 -0.53125 C 1.757812 -0.65625 1.8125 -0.851562 1.8125 -1.125 C 1.8125 -1.382812 1.757812 -1.578125 1.65625 -1.703125 C 1.550781 -1.828125 1.40625 -1.890625 1.21875 -1.890625 C 1.03125 -1.890625 0.882812 -1.828125 0.78125 -1.703125 C 0.6875 -1.578125 0.640625 -1.382812 0.640625 -1.125 C 0.640625 -0.851562 0.6875 -0.65625 0.78125 -0.53125 C 0.882812 -0.414062 1.03125 -0.359375 1.21875 -0.359375 Z M 1.21875 -0.359375 "/></g></g></g><g fill="#a0a6ac" fill-opacity="1"><g transform="translate(53.14089, 3.611279)"><g><path d="M 0.703125 0 L 0.296875 0 L 0.296875 -2.234375 L 0.875 -2.234375 L 1.4375 -0.59375 L 1.46875 -0.59375 L 2.03125 -2.234375 L 2.59375 -2.234375 L 2.59375 0 L 2.1875 0 L 2.1875 -1.484375 L 2.140625 -1.484375 L 1.625 0 L 1.25 0 L 0.734375 -1.484375 L 0.703125 -1.484375 Z M 0.703125 0 "/></g></g></g></g></g></svg>